# xmcd
#
# Track frame offsets:
#	150
#	14940
#	29335
#	39565
#	55935
#	68865
#	83032
#	97195
#	110720
#	123795
#	139605
#	152940
#	171157
#	183605
#
# Disc length: 2628 seconds
#
# Revision: 0
# Processed by: cddbd v1.4PL0 Copyright (c) Steve Scherf et al.
# Submitted via: audiograbber 1.80
#
DISCID=c80a420e
DTITLE=Marcelo Costa apresenta - Especial sertanejo
DYEAR=1900
DGENRE=
TTITLE0=Marcelo Costa - Cai nos meus braços
TTITLE1=Rio Negro and Solimões - De São Paulo a Belém
TTITLE2=Ataíde and Alexandre - Amor carrapicho
TTITLE3=Gian and Giovani - 1,2,3
TTITLE4=Luiz Cláudio and Giuliano - Rala e rola (sabadão)
TTITLE5=Jayne - Peão apaixonado
TTITLE6=Marcelo Aguiar and Fernando - Peão de rodeio
TTITLE7=Gilberto and Gilmar - Nóis não vive sem muié
TTITLE8=Fred and Pedrito - Pegando fogo
TTITLE9=Chitãozinho and Chororó - Bailão de peão
TTITLE10=Alex and Alexandre - Menina gente fina
TTITLE11=Juliano Cézar - Eu sou do meio
TTITLE12=Odair and Júnior - O negócio da minha mulher
TTITLE13=Marcelo Costa - Ringue do amor
EXTD=
EXTT0=
EXTT1=
EXTT2=
EXTT3=
EXTT4=
EXTT5=
EXTT6=
EXTT7=
EXTT8=
EXTT9=
EXTT10=
EXTT11=
EXTT12=
EXTT13=
PLAYORDER=
